<svg id="Layer_1" enable-background="new 0 0 511.938 511.938" height="512" viewBox="0 0 511.938 511.938" width="512" xmlns="http://www.w3.org/2000/svg"><g><path d="m407.761 62.773c-83.699-83.697-219.885-83.697-303.584 0-83.779 83.777-83.922 219.664 0 303.586l115.579 115.579h-44.12c-8.284 0-15 6.716-15 15s6.716 15 15 15h160.666c8.284 0 15-6.716 15-15s-6.716-15-15-15h-44.12l115.579-115.579c83.778-83.778 83.923-219.665 0-303.586zm-151.792 412.952-130.579-130.579c-71.626-71.626-72.593-188.567 0-261.16 72-71.998 189.154-72.002 261.158 0 71.626 71.626 72.593 188.567 0 261.16z"/><path d="m266.575 84.666c-5.857-5.857-15.355-5.857-21.213 0l-112.466 112.465c-5.858 5.857-5.858 15.355 0 21.213 5.856 5.859 15.354 5.857 21.213 0l6.527-6.527v92.321c0 8.284 6.716 15 15 15h160.666c8.284 0 15-6.716 15-15v-92.321l6.527 6.527c5.86 5.86 15.356 5.857 21.213 0 5.858-5.857 5.858-15.355 0-21.213zm54.727 204.472h-130.666v-107.32l65.333-65.333 65.333 65.333z"/></g></svg>